<svg width="30" height="31" viewBox="0 0 30 31" fill="none" xmlns="http://www.w3.org/2000/svg">
<g clip-path="url(#clip0_124_278)">
<path d="M29.7153 16.7005C30.0949 15.9488 30.0949 15.0512 29.7153 14.2995L29.3223 13.521C29.2366 13.3513 29.2067 13.1623 29.2357 12.9744L29.3689 12.1126C29.4976 11.2803 29.2202 10.4267 28.6269 9.82903L28.0126 9.21011C27.8787 9.07516 27.7918 8.90464 27.7614 8.71695L27.6218 7.85613C27.4884 7.03411 26.971 6.31487 26.2353 5.92666L25.4795 5.4809C25.4649 5.47229 25.4501 5.46408 25.4349 5.45635C25.2659 5.36944 25.1306 5.23414 25.0437 5.06503L24.6449 4.28953C24.2688 3.55822 23.5021 3.01742 22.6438 2.87819L21.783 2.7386C21.5953 2.70813 21.4248 2.62129 21.2899 2.48739L20.6709 1.87299C20.0733 1.27973 19.2198 1.00256 18.3875 1.13101L17.5257 1.26421C17.3376 1.29327 17.1487 1.26333 16.979 1.17766L16.2005 0.784635C15.4488 0.405151 14.5513 0.405092 13.7995 0.784635L13.021 1.17766C12.8514 1.26327 12.6624 1.29315 12.4744 1.26426L11.6126 1.13107C10.7802 1.00233 9.92671 1.27979 9.32907 1.87304L8.71009 2.48733C8.5752 2.62129 8.40467 2.70813 8.21698 2.7386L7.35611 2.87819C6.49788 3.01742 5.73111 3.55816 5.35509 4.28953L4.95632 5.06503C4.86936 5.23408 4.73406 5.36944 4.56494 5.45635L3.78939 5.85517C3.05808 6.23119 2.51728 6.99796 2.37811 7.85619L2.23846 8.71706C2.20805 8.90475 2.12115 9.07522 1.98719 9.21017L1.37296 9.82909C0.779712 10.4267 0.502365 11.2803 0.630989 12.1126L0.764242 12.9744C0.793307 13.1623 0.763363 13.3513 0.677634 13.521L0.284613 14.2995C-0.0948711 15.0512 -0.0948711 15.9487 0.284613 16.7005L0.677634 17.479C0.763305 17.6487 0.793249 17.8376 0.764242 18.0256L0.630989 18.8874C0.502365 19.7196 0.779771 20.5732 1.37296 21.1709L1.98731 21.7899C2.12127 21.9248 2.20817 22.0953 2.23858 22.283L2.37822 23.1438C2.51739 24.0021 3.0582 24.7688 3.78951 25.1449L4.565 25.5436C4.73412 25.6306 4.86942 25.7659 4.95638 25.935L5.35515 26.7106C5.73123 27.4419 6.49799 27.9827 7.35623 28.1219L8.21704 28.2615C8.40473 28.292 8.57525 28.3788 8.71015 28.5127L9.32912 29.1271C9.92689 29.7204 10.7804 29.9975 11.6126 29.869L12.4745 29.7358C12.6623 29.7067 12.8514 29.7367 13.021 29.8224L13.7995 30.2154C14.1754 30.4052 14.5877 30.5 15 30.5C15.4124 30.5 15.8247 30.4052 16.2005 30.2154L16.979 29.8224C17.1487 29.7367 17.3378 29.7068 17.5256 29.7358L18.3874 29.869C19.2196 29.9975 20.0732 29.7203 20.6709 29.127L21.2899 28.5127C21.4247 28.3787 21.5953 28.2919 21.783 28.2614L22.6438 28.1217C23.4658 27.9884 24.1851 27.4711 24.5733 26.7353L25.0191 25.9795C25.0277 25.9648 25.0359 25.95 25.0436 25.9349C25.1305 25.7658 25.2659 25.6305 25.4349 25.5436L26.2104 25.1448C26.9593 24.7598 27.4869 24.0336 27.6218 23.2023L27.7614 22.3416C27.7918 22.1539 27.8787 21.9834 28.0126 21.8484C28.0219 21.839 28.6423 21.1553 28.6423 21.1553C29.225 20.5584 29.4965 19.7124 29.3689 18.8874L29.2357 18.0256C29.2066 17.8377 29.2366 17.6487 29.3222 17.479L29.7153 16.7005Z" fill="url(#paint0_linear_124_278)"/>
<path d="M15 4.8938C9.17702 4.8938 4.39368 9.67843 4.39368 15.5001C4.39368 21.3231 9.17831 26.1065 15 26.1065C20.823 26.1065 25.6064 21.3218 25.6064 15.5001C25.6064 9.67714 20.8217 4.8938 15 4.8938ZM21.1266 13.0764L19.3687 20.1082C19.2709 20.4995 18.9193 20.774 18.5159 20.774H11.4841C11.0808 20.774 10.7292 20.4995 10.6314 20.1082L8.87342 13.0764C8.76988 12.6622 8.97901 12.2334 9.36922 12.0599C9.75937 11.8865 10.2178 12.0187 10.4559 12.3731C10.6964 12.7267 11.5666 13.7422 12.3631 13.7422C12.5086 13.7422 12.9596 13.4034 13.4242 12.356C13.841 11.4163 14.121 10.2073 14.121 9.34729C14.121 8.86186 14.5146 8.46831 15 8.46831C15.4854 8.46831 15.879 8.86186 15.879 9.34729C15.879 10.2073 16.159 11.4163 16.5758 12.356C17.0405 13.4034 17.4914 13.7422 17.637 13.7422C18.4572 13.7422 19.35 12.6623 19.5442 12.3731C19.7822 12.0187 20.2407 11.8866 20.6308 12.0599C21.021 12.2334 21.2302 12.6622 21.1266 13.0764Z" fill="url(#paint1_linear_124_278)"/>
</g>
<defs>
<linearGradient id="paint0_linear_124_278" x1="15" y1="30.5" x2="15" y2="0.500021" gradientUnits="userSpaceOnUse">
<stop stop-color="#FD5900"/>
<stop offset="1" stop-color="#FFDE00"/>
</linearGradient>
<linearGradient id="paint1_linear_124_278" x1="15" y1="26.1065" x2="15" y2="4.8938" gradientUnits="userSpaceOnUse">
<stop stop-color="#FFE59A"/>
<stop offset="1" stop-color="#FFFFD5"/>
</linearGradient>
<clipPath id="clip0_124_278">
<rect width="30" height="30" fill="white" transform="translate(0 0.5)"/>
</clipPath>
</defs>
</svg>
